<svg width="18" height="18" viewBox="0 0 18 18" fill="none" xmlns="http://www.w3.org/2000/svg">
<path d="M11.3994 15H16.1996" stroke="#241907" stroke-width="1.25" stroke-linecap="round"/>
<path d="M11.3994 11.8008H16.1996" stroke="#241907" stroke-width="1.25" stroke-linecap="round"/>
<path d="M7.80031 15.2155V11.9833C7.80031 10.7112 7.28829 10.1992 6.01623 10.1992H2.78408C1.51202 10.1992 1 10.7112 1 11.9833V15.2155C1 16.4875 1.51202 16.9995 2.78408 16.9995H6.01623C7.28829 16.9995 7.80031 16.4875 7.80031 15.2155Z" stroke="#241907" stroke-width="1.25" stroke-linecap="round" stroke-linejoin="round"/>
<path d="M7.80031 6.21624V2.58407C7.80031 1.45602 7.28829 1 6.01623 1H2.78408C1.51202 1 1 1.45602 1 2.58407V6.20824C1 7.34429 1.51202 7.79231 2.78408 7.79231H6.01623C7.28829 7.80031 7.80031 7.34429 7.80031 6.21624Z" stroke="#241907" stroke-width="1.25" stroke-linecap="round" stroke-linejoin="round"/>
<path d="M16.9995 6.01623V2.78408C16.9995 1.51202 16.4875 1 15.2155 1H11.9833C10.7112 1 10.1992 1.51202 10.1992 2.78408V6.01623C10.1992 7.28829 10.7112 7.80031 11.9833 7.80031H15.2155C16.4875 7.80031 16.9995 7.28829 16.9995 6.01623Z" stroke="#241907" stroke-width="1.25" stroke-linecap="round" stroke-linejoin="round"/>
</svg>
