<svg width="18" height="16" viewBox="0 0 18 16" fill="none" xmlns="http://www.w3.org/2000/svg">
<path d="M15 8.39979C15 7.29579 15.896 6.39979 17 6.39979V5.59979C17 2.39979 16.2 1.59979 13 1.59979H5C1.8 1.59979 1 2.39979 1 5.59979V5.99979C2.104 5.99979 3 6.89579 3 7.99979C3 9.10379 2.104 9.99979 1 9.99979V10.3998C1 13.5998 1.8 14.3998 5 14.3998H13C16.2 14.3998 17 13.5998 17 10.3998C15.896 10.3998 15 9.50379 15 8.39979Z" stroke="#241907" stroke-width="1.25" stroke-linecap="round" stroke-linejoin="round"/>
<path d="M7.40015 1.59979L7.40015 14.3998" stroke="#241907" stroke-width="1.25" stroke-linecap="round" stroke-linejoin="round" stroke-dasharray="5 5"/>
</svg>
