<svg width="20" height="20" viewBox="0 0 20 20" fill="none" xmlns="http://www.w3.org/2000/svg">
<path d="M10 1.375C14.7635 1.375 18.625 5.23654 18.625 10C18.625 14.7635 14.7635 18.625 10 18.625C8.52307 18.625 7.13195 18.252 5.91602 17.5967C5.78673 17.5271 5.6557 17.52 5.55469 17.5557L4.09863 18.0703C2.65238 18.5811 1.25952 17.1887 1.77051 15.7422L2.31543 14.1982C2.34979 14.101 2.34532 13.9748 2.28223 13.8486C1.70281 12.6897 1.375 11.3828 1.375 10C1.375 5.23654 5.23654 1.375 10 1.375Z" stroke="#241907" stroke-width="1.25"/>
<circle cx="6.03979" cy="10.0399" r="1" fill="#241907"/>
<circle cx="10.0398" cy="10.0399" r="1" fill="#241907"/>
<circle cx="14.0398" cy="10.0399" r="1" fill="#241907"/>
</svg>
