<svg width="16" height="18" viewBox="0 0 16 18" fill="none" xmlns="http://www.w3.org/2000/svg">
<path d="M1 6.66228V11.3296C1 13.0445 1 13.0445 2.55556 14.1365L6.83333 16.7088C7.47889 17.0971 8.52889 17.0971 9.16667 16.7088L13.4444 14.1365C15 13.0445 15 13.0445 15 11.3377V6.66228C15 4.95551 15 4.95551 13.4444 3.8635L9.16667 1.2912C8.52889 0.902932 7.47889 0.902932 6.83333 1.2912L2.55556 3.8635C1 4.95551 1 4.95551 1 6.66228Z" stroke="#292D32" stroke-width="1.25" stroke-linecap="round" stroke-linejoin="round"/>
<path d="M8 11C9.10457 11 10 10.1046 10 9C10 7.89543 9.10457 7 8 7C6.89543 7 6 7.89543 6 9C6 10.1046 6.89543 11 8 11Z" stroke="#292D32" stroke-width="1.25" stroke-linecap="round" stroke-linejoin="round"/>
</svg>
