<svg width="78" height="22" viewBox="0 0 78 22" fill="none" xmlns="http://www.w3.org/2000/svg">
<mask id="path-1-outside-1_1_1115" maskUnits="userSpaceOnUse" x="0" y="0" width="78" height="22" fill="black">
<rect fill="white" width="78" height="22"/>
<path d="M0.7 2.128V1.96H9.016C14.532 1.96 16.996 3.78 16.996 6.608C16.996 9.016 14.812 10.696 10.752 11.06C15.596 11.172 18.116 12.628 18.116 15.82C18.116 19.124 15.344 21 9.016 21H0.7V20.832L3.192 20.692V2.268L0.7 2.128ZM9.296 2.24H7.252V10.976H9.296C11.76 10.976 12.572 9.996 12.572 6.608C12.572 3.192 11.76 2.24 9.296 2.24ZM9.296 11.256H7.252V20.72H9.296C12.488 20.72 13.692 19.6 13.692 15.988C13.692 12.348 12.488 11.256 9.296 11.256ZM24.619 20.832V21H18.515V20.832L20.867 18.424L25.739 3.976L25.319 2.716V2.548L29.043 1.288L35.483 20.692L37.387 20.832V21H28.791V20.832L31.311 20.692L29.127 14.112H22.603L21.147 18.424L24.619 20.832ZM22.715 13.832H29.015L25.879 4.396L22.715 13.832ZM46.4185 21.28C41.0985 21.28 37.5145 16.548 37.5145 11.48C37.5145 6.412 41.2665 1.68 45.9705 1.68C47.7625 1.68 49.1345 2.436 50.4505 3.92L52.6625 1.96H52.8305L53.3905 9.044L53.1945 9.1L51.8785 6.636C50.4505 3.976 48.5745 1.96 46.0265 1.96C43.2545 1.96 41.9385 3.612 41.9385 11.48C41.9385 19.348 43.3385 20.944 46.6705 20.944C49.5265 20.944 51.9345 19.068 52.8585 15.512L53.1105 15.596C52.1865 19.264 49.7225 21.28 46.4185 21.28ZM64.3013 21.28C58.9813 21.28 55.3973 16.548 55.3973 11.48C55.3973 6.412 59.1493 1.68 63.8533 1.68C65.6453 1.68 67.0173 2.436 68.3333 3.92L70.5453 1.96H70.7133L71.2733 9.044L71.0773 9.1L69.7613 6.636C68.3333 3.976 66.4573 1.96 63.9093 1.96C61.1373 1.96 59.8213 3.612 59.8213 11.48C59.8213 19.348 61.2213 20.944 64.5533 20.944C67.4093 20.944 69.8173 19.068 70.7413 15.512L70.9933 15.596C70.0693 19.264 67.6053 21.28 64.3013 21.28ZM77.3918 19.236C77.3918 20.44 76.4118 21.224 75.3758 21.224C74.3398 21.224 73.3598 20.44 73.3598 19.236C73.3598 18.088 74.3118 17.248 75.3758 17.248C76.4118 17.248 77.3918 18.088 77.3918 19.236Z"/>
</mask>
<path d="M0.7 2.128V1.96H9.016C14.532 1.96 16.996 3.78 16.996 6.608C16.996 9.016 14.812 10.696 10.752 11.06C15.596 11.172 18.116 12.628 18.116 15.82C18.116 19.124 15.344 21 9.016 21H0.7V20.832L3.192 20.692V2.268L0.7 2.128ZM9.296 2.24H7.252V10.976H9.296C11.76 10.976 12.572 9.996 12.572 6.608C12.572 3.192 11.76 2.24 9.296 2.24ZM9.296 11.256H7.252V20.72H9.296C12.488 20.72 13.692 19.6 13.692 15.988C13.692 12.348 12.488 11.256 9.296 11.256ZM24.619 20.832V21H18.515V20.832L20.867 18.424L25.739 3.976L25.319 2.716V2.548L29.043 1.288L35.483 20.692L37.387 20.832V21H28.791V20.832L31.311 20.692L29.127 14.112H22.603L21.147 18.424L24.619 20.832ZM22.715 13.832H29.015L25.879 4.396L22.715 13.832ZM46.4185 21.28C41.0985 21.28 37.5145 16.548 37.5145 11.48C37.5145 6.412 41.2665 1.68 45.9705 1.68C47.7625 1.68 49.1345 2.436 50.4505 3.92L52.6625 1.96H52.8305L53.3905 9.044L53.1945 9.1L51.8785 6.636C50.4505 3.976 48.5745 1.96 46.0265 1.96C43.2545 1.96 41.9385 3.612 41.9385 11.48C41.9385 19.348 43.3385 20.944 46.6705 20.944C49.5265 20.944 51.9345 19.068 52.8585 15.512L53.1105 15.596C52.1865 19.264 49.7225 21.28 46.4185 21.28ZM64.3013 21.28C58.9813 21.28 55.3973 16.548 55.3973 11.48C55.3973 6.412 59.1493 1.68 63.8533 1.68C65.6453 1.68 67.0173 2.436 68.3333 3.92L70.5453 1.96H70.7133L71.2733 9.044L71.0773 9.1L69.7613 6.636C68.3333 3.976 66.4573 1.96 63.9093 1.96C61.1373 1.96 59.8213 3.612 59.8213 11.48C59.8213 19.348 61.2213 20.944 64.5533 20.944C67.4093 20.944 69.8173 19.068 70.7413 15.512L70.9933 15.596C70.0693 19.264 67.6053 21.28 64.3013 21.28ZM77.3918 19.236C77.3918 20.44 76.4118 21.224 75.3758 21.224C74.3398 21.224 73.3598 20.44 73.3598 19.236C73.3598 18.088 74.3118 17.248 75.3758 17.248C76.4118 17.248 77.3918 18.088 77.3918 19.236Z" fill="#241907"/>
<path d="M0.7 2.128H0.3V2.50616L0.677563 2.52737L0.7 2.128ZM0.7 1.96V1.56H0.3V1.96H0.7ZM10.752 11.06L10.7163 10.6616L10.7428 11.4599L10.752 11.06ZM0.7 21H0.3V21.4H0.7V21ZM0.7 20.832L0.677563 20.4326L0.3 20.4538V20.832H0.7ZM3.192 20.692L3.21444 21.0914L3.592 21.0702V20.692H3.192ZM3.192 2.268H3.592V1.88984L3.21444 1.86863L3.192 2.268ZM7.252 2.24V1.84H6.852V2.24H7.252ZM7.252 10.976H6.852V11.376H7.252V10.976ZM7.252 11.256V10.856H6.852V11.256H7.252ZM7.252 20.72H6.852V21.12H7.252V20.72ZM0.7 2.128H1.1V1.96H0.7H0.3V2.128H0.7ZM0.7 1.96V2.36H9.016V1.96V1.56H0.7V1.96ZM9.016 1.96V2.36C11.7411 2.36 13.6495 2.81149 14.8639 3.56357C16.0521 4.29944 16.596 5.33305 16.596 6.608H16.996H17.396C17.396 5.05495 16.7079 3.76456 15.2851 2.88343C13.8885 2.01851 11.8069 1.56 9.016 1.56V1.96ZM16.996 6.608H16.596C16.596 7.67237 16.121 8.57868 15.1612 9.27705C14.1872 9.98571 12.7054 10.4833 10.7163 10.6616L10.752 11.06L10.7877 11.4584C12.8586 11.2727 14.4988 10.7483 15.6318 9.92395C16.779 9.08932 17.396 7.95163 17.396 6.608H16.996ZM10.752 11.06L10.7428 11.4599C13.1399 11.5153 14.8936 11.9042 16.0376 12.6236C17.1483 13.3222 17.716 14.3514 17.716 15.82H18.116H18.516C18.516 14.0966 17.8237 12.8018 16.4634 11.9464C15.1364 11.1118 13.2081 10.7167 10.7612 10.6601L10.752 11.06ZM18.116 15.82H17.716C17.716 17.335 17.0938 18.4973 15.7346 19.3051C14.3425 20.1326 12.1536 20.6 9.016 20.6V21V21.4C12.2064 21.4 14.5675 20.9294 16.1434 19.9929C17.7522 19.0367 18.516 17.609 18.516 15.82H18.116ZM9.016 21V20.6H0.7V21V21.4H9.016V21ZM0.7 21H1.1V20.832H0.7H0.3V21H0.7ZM0.7 20.832L0.722437 21.2314L3.21444 21.0914L3.192 20.692L3.16956 20.2926L0.677563 20.4326L0.7 20.832ZM3.192 20.692H3.592V2.268H3.192H2.792V20.692H3.192ZM3.192 2.268L3.21444 1.86863L0.722437 1.72863L0.7 2.128L0.677563 2.52737L3.16956 2.66737L3.192 2.268ZM9.296 2.24V1.84H7.252V2.24V2.64H9.296V2.24ZM7.252 2.24H6.852V10.976H7.252H7.652V2.24H7.252ZM7.252 10.976V11.376H9.296V10.976V10.576H7.252V10.976ZM9.296 10.976V11.376C10.5661 11.376 11.5487 11.1258 12.1758 10.3054C12.7753 9.52107 12.972 8.30485 12.972 6.608H12.572H12.172C12.172 8.29915 11.9627 9.26693 11.5402 9.81958C11.1453 10.3362 10.4899 10.576 9.296 10.576V10.976ZM12.572 6.608H12.972C12.972 4.8981 12.7756 3.68071 12.1752 2.89928C11.5471 2.08191 10.5633 1.84 9.296 1.84V2.24V2.64C10.4927 2.64 11.1469 2.87409 11.5408 3.38672C11.9624 3.93528 12.172 4.9019 12.172 6.608H12.572ZM9.296 11.256V10.856H7.252V11.256V11.656H9.296V11.256ZM7.252 11.256H6.852V20.72H7.252H7.652V11.256H7.252ZM7.252 20.72V21.12H9.296V20.72V20.32H7.252V20.72ZM9.296 20.72V21.12C10.9191 21.12 12.1622 20.8397 12.98 19.9851C13.7923 19.1362 14.092 17.8163 14.092 15.988H13.692H13.292C13.292 17.7717 12.9897 18.8178 12.402 19.4319C11.8198 20.0403 10.8649 20.32 9.296 20.32V20.72ZM13.692 15.988H14.092C14.092 14.1466 13.7926 12.8256 12.9793 11.9798C12.1608 11.1285 10.917 10.856 9.296 10.856V11.256V11.656C10.867 11.656 11.8212 11.9295 12.4027 12.5342C12.9894 13.1444 13.292 14.1894 13.292 15.988H13.692ZM24.619 20.832H25.019V20.6226L24.847 20.5033L24.619 20.832ZM24.619 21V21.4H25.019V21H24.619ZM18.515 21H18.115V21.4H18.515V21ZM18.515 20.832L18.2288 20.5525L18.115 20.6691V20.832H18.515ZM20.867 18.424L21.1532 18.7035L21.2169 18.6382L21.246 18.5518L20.867 18.424ZM25.739 3.976L26.118 4.10381L26.1609 3.97673L26.1185 3.84951L25.739 3.976ZM25.319 2.716H24.919V2.78091L24.9395 2.84249L25.319 2.716ZM25.319 2.548L25.1908 2.1691L24.919 2.26106V2.548H25.319ZM29.043 1.288L29.4226 1.162L29.2959 0.780153L28.9148 0.909099L29.043 1.288ZM35.483 20.692L35.1034 20.818L35.1874 21.0713L35.4537 21.0909L35.483 20.692ZM37.387 20.832H37.787V20.4603L37.4163 20.4331L37.387 20.832ZM37.387 21V21.4H37.787V21H37.387ZM28.791 21H28.391V21.4H28.791V21ZM28.791 20.832L28.7688 20.4326L28.391 20.4536V20.832H28.791ZM31.311 20.692L31.3332 21.0914L31.8554 21.0624L31.6906 20.566L31.311 20.692ZM29.127 14.112L29.5066 13.986L29.4157 13.712H29.127V14.112ZM22.603 14.112V13.712H22.3159L22.224 13.984L22.603 14.112ZM21.147 18.424L20.768 18.296L20.6717 18.5812L20.919 18.7527L21.147 18.424ZM22.715 13.832L22.3358 13.7048L22.159 14.232H22.715V13.832ZM29.015 13.832V14.232H29.5695L29.3946 13.7058L29.015 13.832ZM25.879 4.396L26.2586 4.26985L25.8807 3.13277L25.4998 4.26883L25.879 4.396ZM24.619 20.832H24.219V21H24.619H25.019V20.832H24.619ZM24.619 21V20.6H18.515V21V21.4H24.619V21ZM18.515 21H18.915V20.832H18.515H18.115V21H18.515ZM18.515 20.832L18.8012 21.1115L21.1532 18.7035L20.867 18.424L20.5808 18.1445L18.2288 20.5525L18.515 20.832ZM20.867 18.424L21.246 18.5518L26.118 4.10381L25.739 3.976L25.36 3.84819L20.488 18.2962L20.867 18.424ZM25.739 3.976L26.1185 3.84951L25.6985 2.58951L25.319 2.716L24.9395 2.84249L25.3595 4.10249L25.739 3.976ZM25.319 2.716H25.719V2.548H25.319H24.919V2.716H25.319ZM25.319 2.548L25.4472 2.9269L29.1712 1.6669L29.043 1.288L28.9148 0.909099L25.1908 2.1691L25.319 2.548ZM29.043 1.288L28.6634 1.414L35.1034 20.818L35.483 20.692L35.8626 20.566L29.4226 1.162L29.043 1.288ZM35.483 20.692L35.4537 21.0909L37.3577 21.2309L37.387 20.832L37.4163 20.4331L35.5123 20.2931L35.483 20.692ZM37.387 20.832H36.987V21H37.387H37.787V20.832H37.387ZM37.387 21V20.6H28.791V21V21.4H37.387V21ZM28.791 21H29.191V20.832H28.791H28.391V21H28.791ZM28.791 20.832L28.8132 21.2314L31.3332 21.0914L31.311 20.692L31.2888 20.2926L28.7688 20.4326L28.791 20.832ZM31.311 20.692L31.6906 20.566L29.5066 13.986L29.127 14.112L28.7474 14.238L30.9314 20.818L31.311 20.692ZM29.127 14.112V13.712H22.603V14.112V14.512H29.127V14.112ZM22.603 14.112L22.224 13.984L20.768 18.296L21.147 18.424L21.526 18.552L22.982 14.24L22.603 14.112ZM21.147 18.424L20.919 18.7527L24.391 21.1607L24.619 20.832L24.847 20.5033L21.375 18.0953L21.147 18.424ZM22.715 13.832V14.232H29.015V13.832V13.432H22.715V13.832ZM29.015 13.832L29.3946 13.7058L26.2586 4.26985L25.879 4.396L25.4994 4.52215L28.6354 13.9582L29.015 13.832ZM25.879 4.396L25.4998 4.26883L22.3358 13.7048L22.715 13.832L23.0942 13.9592L26.2582 4.52316L25.879 4.396ZM50.4505 3.92L50.1513 4.18539L50.4165 4.48455L50.7158 4.21938L50.4505 3.92ZM52.6625 1.96V1.56H52.5108L52.3973 1.66062L52.6625 1.96ZM52.8305 1.96L53.2293 1.92848L53.2002 1.56H52.8305V1.96ZM53.3905 9.044L53.5004 9.42861L53.8151 9.33871L53.7893 9.01248L53.3905 9.044ZM53.1945 9.1L52.8417 9.28844L52.9939 9.57334L53.3044 9.48461L53.1945 9.1ZM51.8785 6.636L52.2314 6.44756L52.231 6.4468L51.8785 6.636ZM52.8585 15.512L52.985 15.1325L52.579 14.9972L52.4714 15.4114L52.8585 15.512ZM53.1105 15.596L53.4984 15.6937L53.5891 15.3339L53.237 15.2165L53.1105 15.596ZM46.4185 21.28V20.88C41.3742 20.88 37.9145 16.3861 37.9145 11.48H37.5145H37.1145C37.1145 16.7099 40.8229 21.68 46.4185 21.68V21.28ZM37.5145 11.48H37.9145C37.9145 6.56477 41.5499 2.08 45.9705 2.08V1.68V1.28C40.9831 1.28 37.1145 6.25922 37.1145 11.48H37.5145ZM45.9705 1.68V2.08C47.6202 2.08 48.8905 2.76367 50.1513 4.18539L50.4505 3.92L50.7498 3.6546C49.3786 2.10833 47.9048 1.28 45.9705 1.28V1.68ZM50.4505 3.92L50.7158 4.21938L52.9278 2.25938L52.6625 1.96L52.3973 1.66062L50.1853 3.62062L50.4505 3.92ZM52.6625 1.96V2.36H52.8305V1.96V1.56H52.6625V1.96ZM52.8305 1.96L52.4318 1.99152L52.9918 9.07552L53.3905 9.044L53.7893 9.01248L53.2293 1.92848L52.8305 1.96ZM53.3905 9.044L53.2806 8.65939L53.0846 8.71539L53.1945 9.1L53.3044 9.48461L53.5004 9.42861L53.3905 9.044ZM53.1945 9.1L53.5474 8.91156L52.2314 6.44756L51.8785 6.636L51.5257 6.82444L52.8417 9.28844L53.1945 9.1ZM51.8785 6.636L52.231 6.4468C50.7918 3.76604 48.814 1.56 46.0265 1.56V1.96V2.36C48.335 2.36 50.1093 4.18596 51.5261 6.8252L51.8785 6.636ZM46.0265 1.96V1.56C45.2971 1.56 44.6213 1.66808 44.0279 1.9893C43.4279 2.31413 42.9502 2.83613 42.5829 3.59532C41.8634 5.08284 41.5385 7.54747 41.5385 11.48H41.9385H42.3385C42.3385 7.54453 42.6716 5.24916 43.3031 3.94368C43.6114 3.30637 43.9824 2.92362 44.4088 2.69283C44.8418 2.45842 45.37 2.36 46.0265 2.36V1.96ZM41.9385 11.48H41.5385C41.5385 15.4099 41.883 17.8735 42.7052 19.3565C43.1265 20.1163 43.6757 20.6249 44.36 20.9359C45.0336 21.2419 45.8106 21.344 46.6705 21.344V20.944V20.544C45.8645 20.544 45.217 20.4466 44.6909 20.2075C44.1757 19.9734 43.7501 19.5912 43.4049 18.9685C42.6941 17.6865 42.3385 15.4181 42.3385 11.48H41.9385ZM46.6705 20.944V21.344C49.739 21.344 52.2839 19.3138 53.2457 15.6126L52.8585 15.512L52.4714 15.4114C51.5851 18.8222 49.3141 20.544 46.6705 20.544V20.944ZM52.8585 15.512L52.732 15.8915L52.984 15.9755L53.1105 15.596L53.237 15.2165L52.985 15.1325L52.8585 15.512ZM53.1105 15.596L52.7226 15.4983C52.2769 17.2677 51.4677 18.6091 50.3996 19.5074C49.3338 20.4036 47.9855 20.88 46.4185 20.88V21.28V21.68C48.1556 21.68 49.6912 21.1484 50.9145 20.1196C52.1354 19.0929 53.0201 17.5923 53.4984 15.6937L53.1105 15.596ZM68.3333 3.92L68.0341 4.18539L68.2994 4.48455L68.5986 4.21938L68.3333 3.92ZM70.5453 1.96V1.56H70.3936L70.2801 1.66062L70.5453 1.96ZM70.7133 1.96L71.1121 1.92848L71.083 1.56H70.7133V1.96ZM71.2733 9.044L71.3832 9.42861L71.6979 9.33871L71.6721 9.01248L71.2733 9.044ZM71.0773 9.1L70.7245 9.28844L70.8767 9.57334L71.1872 9.48461L71.0773 9.1ZM69.7613 6.636L70.1142 6.44756L70.1138 6.4468L69.7613 6.636ZM70.7413 15.512L70.8678 15.1325L70.4618 14.9972L70.3542 15.4114L70.7413 15.512ZM70.9933 15.596L71.3812 15.6937L71.4719 15.3339L71.1198 15.2165L70.9933 15.596ZM64.3013 21.28V20.88C59.257 20.88 55.7973 16.3861 55.7973 11.48H55.3973H54.9973C54.9973 16.7099 58.7057 21.68 64.3013 21.68V21.28ZM55.3973 11.48H55.7973C55.7973 6.56477 59.4327 2.08 63.8533 2.08V1.68V1.28C58.866 1.28 54.9973 6.25922 54.9973 11.48H55.3973ZM63.8533 1.68V2.08C65.5031 2.08 66.7733 2.76367 68.0341 4.18539L68.3333 3.92L68.6326 3.6546C67.2614 2.10833 65.7876 1.28 63.8533 1.28V1.68ZM68.3333 3.92L68.5986 4.21938L70.8106 2.25938L70.5453 1.96L70.2801 1.66062L68.0681 3.62062L68.3333 3.92ZM70.5453 1.96V2.36H70.7133V1.96V1.56H70.5453V1.96ZM70.7133 1.96L70.3146 1.99152L70.8746 9.07552L71.2733 9.044L71.6721 9.01248L71.1121 1.92848L70.7133 1.96ZM71.2733 9.044L71.1635 8.65939L70.9675 8.71539L71.0773 9.1L71.1872 9.48461L71.3832 9.42861L71.2733 9.044ZM71.0773 9.1L71.4302 8.91156L70.1142 6.44756L69.7613 6.636L69.4085 6.82444L70.7245 9.28844L71.0773 9.1ZM69.7613 6.636L70.1138 6.4468C68.6746 3.76604 66.6968 1.56 63.9093 1.56V1.96V2.36C66.2178 2.36 67.9921 4.18596 69.4089 6.8252L69.7613 6.636ZM63.9093 1.96V1.56C63.1799 1.56 62.5041 1.66808 61.9107 1.9893C61.3107 2.31413 60.833 2.83613 60.4658 3.59532C59.7462 5.08284 59.4213 7.54747 59.4213 11.48H59.8213H60.2213C60.2213 7.54453 60.5545 5.24916 61.1859 3.94368C61.4942 3.30637 61.8652 2.92362 62.2916 2.69283C62.7246 2.45842 63.2528 2.36 63.9093 2.36V1.96ZM59.8213 11.48H59.4213C59.4213 15.4099 59.7658 17.8735 60.588 19.3565C61.0093 20.1163 61.5585 20.6249 62.2428 20.9359C62.9164 21.2419 63.6934 21.344 64.5533 21.344V20.944V20.544C63.7473 20.544 63.0998 20.4466 62.5738 20.2075C62.0585 19.9734 61.6329 19.5912 61.2877 18.9685C60.5769 17.6865 60.2213 15.4181 60.2213 11.48H59.8213ZM64.5533 20.944V21.344C67.6218 21.344 70.1668 19.3138 71.1285 15.6126L70.7413 15.512L70.3542 15.4114C69.4679 18.8222 67.1969 20.544 64.5533 20.544V20.944ZM70.7413 15.512L70.6149 15.8915L70.8669 15.9755L70.9933 15.596L71.1198 15.2165L70.8678 15.1325L70.7413 15.512ZM70.9933 15.596L70.6055 15.4983C70.1597 17.2677 69.3505 18.6091 68.2824 19.5074C67.2167 20.4036 65.8683 20.88 64.3013 20.88V21.28V21.68C66.0384 21.68 67.574 21.1484 68.7973 20.1196C70.0182 19.0929 70.9029 17.5923 71.3812 15.6937L70.9933 15.596ZM77.3918 19.236H76.9918C76.9918 20.1904 76.2207 20.824 75.3758 20.824V21.224V21.624C76.6029 21.624 77.7918 20.6896 77.7918 19.236H77.3918ZM75.3758 21.224V20.824C74.5309 20.824 73.7598 20.1904 73.7598 19.236H73.3598H72.9598C72.9598 20.6896 74.1487 21.624 75.3758 21.624V21.224ZM73.3598 19.236H73.7598C73.7598 18.3269 74.5143 17.648 75.3758 17.648V17.248V16.848C74.1093 16.848 72.9598 17.8491 72.9598 19.236H73.3598ZM75.3758 17.248V17.648C76.2129 17.648 76.9918 18.3303 76.9918 19.236H77.3918H77.7918C77.7918 17.8457 76.6106 16.848 75.3758 16.848V17.248Z" fill="#241907" mask="url(#path-1-outside-1_1_1115)"/>
</svg>
