<svg width="16" height="16" viewBox="0 0 16 16" fill="none" xmlns="http://www.w3.org/2000/svg">
<g clip-path="url(#clip0_1_1122)">
<path d="M10.8548 5C10.3871 2.20937 9.28387 0.25 8 0.25C6.71613 0.25 5.6129 2.20937 5.14516 5H10.8548ZM4.90323 8C4.90323 8.69375 4.94194 9.35938 5.00968 10H10.9871C11.0548 9.35938 11.0935 8.69375 11.0935 8C11.0935 7.30625 11.0548 6.64062 10.9871 6H5.00968C4.94194 6.64062 4.90323 7.30625 4.90323 8ZM15.3774 5C14.4548 2.87812 12.5871 1.2375 10.2806 0.575C11.0677 1.63125 11.6097 3.22187 11.8935 5H15.3774ZM5.71613 0.575C3.4129 1.2375 1.54194 2.87812 0.622581 5H4.10645C4.3871 3.22187 4.92903 1.63125 5.71613 0.575ZM15.7226 6H12.0226C12.0903 6.65625 12.129 7.32812 12.129 8C12.129 8.67188 12.0903 9.34375 12.0226 10H15.7194C15.8968 9.35938 15.9968 8.69375 15.9968 8C15.9968 7.30625 15.8968 6.64062 15.7226 6ZM3.87097 8C3.87097 7.32812 3.90968 6.65625 3.97742 6H0.277419C0.103226 6.64062 0 7.30625 0 8C0 8.69375 0.103226 9.35938 0.277419 10H3.97419C3.90968 9.34375 3.87097 8.67188 3.87097 8ZM5.14516 11C5.6129 13.7906 6.71613 15.75 8 15.75C9.28387 15.75 10.3871 13.7906 10.8548 11H5.14516ZM10.2839 15.425C12.5871 14.7625 14.4581 13.1219 15.3806 11H11.8968C11.6129 12.7781 11.071 14.3688 10.2839 15.425ZM0.622581 11C1.54516 13.1219 3.4129 14.7625 5.71935 15.425C4.93226 14.3688 4.39032 12.7781 4.10645 11H0.622581Z" fill="#475467"/>
</g>
<defs>
<clipPath id="clip0_1_1122">
<rect width="16" height="16" fill="white"/>
</clipPath>
</defs>
</svg>
