<svg width="20" height="18" viewBox="0 0 20 18" fill="none" xmlns="http://www.w3.org/2000/svg">
<path fill-rule="evenodd" clip-rule="evenodd" d="M10.7297 12.8501C10.7297 13.2641 10.3937 13.6001 9.9797 13.6001C9.5657 13.6001 9.2297 13.2641 9.2297 12.8501V9.9201C9.2297 9.5061 9.5657 9.1701 9.9797 9.1701C10.3937 9.1701 10.7297 9.5061 10.7297 9.9201V12.8501ZM19.6337 7.0171L18.0527 5.71914C18.0507 5.71814 18.0487 5.71614 18.0487 5.71614L11.9467 0.711141C10.8187 -0.223859 9.1807 -0.222859 8.0567 0.707141L1.95174 5.71614C1.94774 5.71814 1.94474 5.72214 1.94074 5.72414L0.365737 7.0171C-0.0612629 7.3671 -0.123263 7.9971 0.226737 8.4241C0.577737 8.8521 1.20774 8.9141 1.63374 8.5641L1.78674 8.4381L2.90174 15.0761C3.18574 16.7651 4.63374 17.9901 6.34474 17.9901H13.6527C15.3647 17.9901 16.8127 16.7651 17.0967 15.0761L18.2117 8.4381L18.3657 8.5641C18.5517 8.7161 18.7767 8.7901 18.9997 8.7901C19.2887 8.7901 19.5747 8.6651 19.7727 8.4241C20.1237 7.9971 20.0607 7.3671 19.6337 7.0171Z" fill="#86562B"/>
</svg>
